<svg width="48" height="48" viewBox="0 0 16 16" xmlns="http://www.w3.org/2000/svg">
    <path fill-rule="evenodd" clip-rule="evenodd" d="M8.157 7.643a3.16 3.16 0 01-.471.57c-.173.163-.095.725.23 1.526.383.943 1.206 1.138 2.047 1.337.793.188 1.603.38 2.075 1.207.598 1.048.401 1.717.401 1.717H.031s-.197-.67.401-1.717c.473-.827 1.287-1.019 2.085-1.207.847-.199 1.675-.394 2.057-1.337.325-.8.383-1.363.21-1.526a3.16 3.16 0 01-.471-.57c-.434-.664-.699-1.552-.699-2.529 0-4.158 5.242-4.247 5.242 0 0 .977-.265 1.865-.699 2.529zm7.822 4.418h-2.823a6.937 6.937 0 00-.163-.3c-.656-1.15-1.8-1.416-2.552-1.591a15.366 15.366 0 01-.466-.115 1.23 1.23 0 00.588-.653c.224-.55.264-.938.145-1.05a2.177 2.177 0 01-.325-.393c-.298-.457-.48-1.069-.48-1.741 0-2.863 3.609-2.924 3.609 0 0 .672-.183 1.284-.482 1.741-.096.148-.205.28-.324.393-.12.112-.066.5.158 1.05.264.65.83.784 1.41.921.546.13 1.103.262 1.428.83.412.722.277.908.277.908z" fill="#000"></path>
</svg>